<svg width="50" height="50" viewBox="0 0 50 50" fill="none" xmlns="http://www.w3.org/2000/svg">
<rect width="50" height="50" rx="25" fill="#A11BA4"/>
<path d="M35.4165 38.3128H29.1665C28.4769 38.3094 27.8165 38.0339 27.3289 37.5463C26.8412 37.0587 26.5658 36.3983 26.5623 35.7086V29.9795H23.4373V35.7086C23.4339 36.3983 23.1584 37.0587 22.6708 37.5463C22.1832 38.0339 21.5228 38.3094 20.8332 38.3128H14.5832C13.8936 38.3094 13.2332 38.0339 12.7455 37.5463C12.2579 37.0587 11.9824 36.3983 11.979 35.7086V23.6644C11.9799 23.301 12.0568 22.9418 12.2048 22.6099C12.3528 22.278 12.5686 21.9808 12.8384 21.7373L23.242 12.2711C23.7221 11.832 24.3492 11.5884 24.9998 11.5884C25.6505 11.5884 26.2776 11.832 26.7577 12.2711L37.1743 21.7373C37.4399 21.9834 37.652 22.2815 37.7976 22.613C37.9432 22.9445 38.0191 23.3023 38.0207 23.6644V35.7086C38.0173 36.3983 37.7418 37.0587 37.2541 37.5463C36.7665 38.0339 36.1061 38.3094 35.4165 38.3128ZM29.6873 35.1878H34.8957V23.8988L24.9998 14.9014L15.104 23.8988V35.1878H20.3123V29.4586C20.3158 28.769 20.5912 28.1086 21.0789 27.621C21.5665 27.1334 22.2269 26.8579 22.9165 26.8545H27.0832C27.7728 26.8579 28.4332 27.1334 28.9208 27.621C29.4085 28.1086 29.6839 28.769 29.6873 29.4586V35.1878Z" fill="#F7F7F7"/>
</svg>
