<svg width="84" height="84" viewBox="0 0 84 84" fill="none" xmlns="http://www.w3.org/2000/svg">
<path d="M24.5002 0.333008H59.5002C72.8335 0.333008 83.6668 11.1663 83.6668 24.4997V59.4997C83.6668 65.9091 81.1207 72.056 76.5886 76.5881C72.0565 81.1202 65.9096 83.6664 59.5002 83.6664H24.5002C11.1668 83.6664 0.333496 72.833 0.333496 59.4997V24.4997C0.333496 18.0903 2.87962 11.9434 7.41175 7.41126C11.9439 2.87913 18.0908 0.333008 24.5002 0.333008ZM23.6668 8.66634C19.6886 8.66634 15.8733 10.2467 13.0602 13.0597C10.2472 15.8728 8.66683 19.6881 8.66683 23.6663V60.333C8.66683 68.6247 15.3752 75.333 23.6668 75.333H60.3335C64.3117 75.333 68.1271 73.7527 70.9401 70.9396C73.7532 68.1266 75.3335 64.3113 75.3335 60.333V23.6663C75.3335 15.3747 68.6252 8.66634 60.3335 8.66634H23.6668ZM63.8752 14.9163C65.2565 14.9163 66.5813 15.4651 67.558 16.4418C68.5348 17.4186 69.0835 18.7433 69.0835 20.1247C69.0835 21.506 68.5348 22.8308 67.558 23.8075C66.5813 24.7843 65.2565 25.333 63.8752 25.333C62.4938 25.333 61.1691 24.7843 60.1923 23.8075C59.2156 22.8308 58.6668 21.506 58.6668 20.1247C58.6668 18.7433 59.2156 17.4186 60.1923 16.4418C61.1691 15.4651 62.4938 14.9163 63.8752 14.9163ZM42.0002 21.1663C47.5255 21.1663 52.8246 23.3613 56.7316 27.2683C60.6386 31.1753 62.8335 36.4743 62.8335 41.9997C62.8335 47.525 60.6386 52.8241 56.7316 56.7311C52.8246 60.6381 47.5255 62.833 42.0002 62.833C36.4748 62.833 31.1758 60.6381 27.2688 56.7311C23.3618 52.8241 21.1668 47.525 21.1668 41.9997C21.1668 36.4743 23.3618 31.1753 27.2688 27.2683C31.1758 23.3613 36.4748 21.1663 42.0002 21.1663ZM42.0002 29.4997C38.685 29.4997 35.5055 30.8166 33.1613 33.1608C30.8171 35.505 29.5002 38.6845 29.5002 41.9997C29.5002 45.3149 30.8171 48.4943 33.1613 50.8385C35.5055 53.1827 38.685 54.4997 42.0002 54.4997C45.3154 54.4997 48.4948 53.1827 50.839 50.8385C53.1832 48.4943 54.5002 45.3149 54.5002 41.9997C54.5002 38.6845 53.1832 35.505 50.839 33.1608C48.4948 30.8166 45.3154 29.4997 42.0002 29.4997Z" fill="url(#paint0_linear_73_1941)"/>
<defs>
<linearGradient id="paint0_linear_73_1941" x1="42.0002" y1="0.333008" x2="42.0002" y2="83.6663" gradientUnits="userSpaceOnUse">
<stop stop-color="#EC1414"/>
<stop offset="0.291667" stop-color="#E61B1B"/>
<stop offset="0.65625" stop-color="#662727"/>
<stop offset="1" stop-color="#A52B2B"/>
</linearGradient>
</defs>
</svg>
