<svg width="76" height="76" viewBox="0 0 76 76" fill="none" xmlns="http://www.w3.org/2000/svg">
<path d="M67.1667 0.5C69.3768 0.5 71.4964 1.37797 73.0592 2.94078C74.622 4.50358 75.5 6.6232 75.5 8.83333V67.1667C75.5 69.3768 74.622 71.4964 73.0592 73.0592C71.4964 74.622 69.3768 75.5 67.1667 75.5H8.83333C6.6232 75.5 4.50358 74.622 2.94078 73.0592C1.37797 71.4964 0.5 69.3768 0.5 67.1667V8.83333C0.5 6.6232 1.37797 4.50358 2.94078 2.94078C4.50358 1.37797 6.6232 0.5 8.83333 0.5H67.1667ZM65.0833 65.0833V43C65.0833 39.3975 63.6522 35.9425 61.1049 33.3951C58.5575 30.8478 55.1025 29.4167 51.5 29.4167C47.9583 29.4167 43.8333 31.5833 41.8333 34.8333V30.2083H30.2083V65.0833H41.8333V44.5417C41.8333 41.3333 44.4167 38.7083 47.625 38.7083C49.1721 38.7083 50.6558 39.3229 51.7498 40.4169C52.8437 41.5108 53.4583 42.9946 53.4583 44.5417V65.0833H65.0833ZM16.6667 23.6667C18.5232 23.6667 20.3037 22.9292 21.6164 21.6164C22.9292 20.3037 23.6667 18.5232 23.6667 16.6667C23.6667 12.7917 20.5417 9.625 16.6667 9.625C14.7991 9.625 13.008 10.3669 11.6875 11.6875C10.3669 13.008 9.625 14.7991 9.625 16.6667C9.625 20.5417 12.7917 23.6667 16.6667 23.6667ZM22.4583 65.0833V30.2083H10.9167V65.0833H22.4583Z" fill="#0A66C2"/>
</svg>
