<svg width="88" height="72" viewBox="0 0 88 72" fill="none" xmlns="http://www.w3.org/2000/svg">
<path d="M87.5832 9.00033C84.3748 10.4587 80.9165 11.417 77.3332 11.8753C80.9998 9.66699 83.8332 6.16699 85.1665 1.95866C81.7082 4.04199 77.8748 5.50033 73.8332 6.33366C70.5415 2.75033 65.9165 0.666992 60.6665 0.666992C50.8748 0.666992 42.8748 8.66699 42.8748 18.542C42.8748 19.9587 43.0415 21.3337 43.3332 22.6253C28.4998 21.8753 15.2915 14.7503 6.49984 3.95866C4.95817 6.58366 4.08317 9.66699 4.08317 12.917C4.08317 19.1253 7.20817 24.6253 12.0415 27.7503C9.08317 27.7503 6.33317 26.917 3.9165 25.667V25.792C3.9165 34.4587 10.0832 41.7087 18.2498 43.3337C15.6279 44.0512 12.8752 44.151 10.2082 43.6253C11.3399 47.1773 13.5562 50.2854 16.5457 52.5125C19.5352 54.7397 23.1475 55.974 26.8748 56.042C20.5566 61.0438 12.7248 63.7475 4.6665 63.7087C3.24984 63.7087 1.83317 63.6253 0.416504 63.4587C8.33317 68.542 17.7498 71.5003 27.8332 71.5003C60.6665 71.5003 78.7082 44.2503 78.7082 20.6253C78.7082 19.8337 78.7082 19.0837 78.6665 18.292C82.1665 15.792 85.1665 12.6253 87.5832 9.00033Z" fill="#1A8CD8"/>
</svg>
