<svg width="80" height="80" viewBox="0 0 300 300" fill="none" xmlns="http://www.w3.org/2000/svg">
<path d="M148.66 258.607C132.859 261.36 116.847 261.703 101.537 259.615C86.2272 257.527 71.9196 253.049 59.4312 246.439C46.9427 239.828 36.518 231.213 28.7522 221.085C20.9864 210.958 16.0316 199.516 14.1707 187.414C12.3098 175.312 13.5792 162.786 17.9065 150.552C22.2338 138.317 29.5343 126.614 39.391 116.11C49.2477 105.605 61.4677 96.5063 75.3533 89.3316C89.2388 82.1569 104.518 77.0473 120.318 74.2943L121.027 78.9022C106.017 81.5174 91.5014 86.3716 78.3101 93.1876C65.1188 100.004 53.5098 108.648 44.1459 118.627C34.782 128.606 27.8466 139.724 23.7357 151.347C19.6247 162.969 18.4187 174.869 20.1866 186.366C21.9544 197.863 26.6615 208.732 34.039 218.353C41.4166 227.974 51.3201 236.159 63.1841 242.439C75.0481 248.72 88.6403 252.973 103.185 254.956C117.729 256.94 132.941 256.615 147.951 253.999L148.66 258.607Z" fill="#640F66"/>
<g clip-path="url(#clip0_51_761)">
<path d="M193.418 224.624L187.497 216.726C186.63 215.629 186.41 214.409 186.838 213.068C187.263 211.725 188.11 210.849 189.379 210.44L205.369 205.28C206.553 204.898 207.758 204.829 208.982 205.073C210.206 205.317 211.31 205.87 212.295 206.733L216.108 210.148C211.33 212.182 207.313 214.216 204.059 216.252C200.804 218.283 197.257 221.074 193.418 224.624ZM259.283 217.973C259.724 218.224 260.106 218.592 260.429 219.078C260.752 219.564 260.991 220.077 261.145 220.617C261.299 221.158 261.368 221.725 261.353 222.32C261.337 222.915 261.212 223.447 260.976 223.917C258.455 229.5 254.522 234.543 249.177 239.046C243.83 243.548 237.815 246.878 231.131 249.035C226.563 250.509 222.422 251.414 218.708 251.751C214.993 252.091 210.834 252.044 206.231 251.612C205.366 251.497 204.563 251.229 203.82 250.806C203.075 250.381 202.574 249.719 202.317 248.818L197.509 231.933C197.252 231.032 197.323 230.185 197.722 229.392C198.119 228.601 198.647 227.902 199.306 227.296C202.88 224.275 206.308 221.792 209.589 219.848C212.868 217.905 216.792 216.197 221.36 214.722C228.044 212.566 234.783 211.78 241.579 212.364C248.373 212.95 254.275 214.82 259.283 217.973ZM225.104 232.247C225.694 234.318 226.912 235.88 228.76 236.932C230.606 237.982 232.501 238.194 234.447 237.566C236.393 236.938 237.86 235.641 238.848 233.674C239.835 231.709 240.034 229.691 239.444 227.62C238.854 225.548 237.636 223.987 235.791 222.937C233.943 221.885 232.046 221.673 230.1 222.301C228.154 222.929 226.688 224.225 225.701 226.19C224.713 228.157 224.514 230.176 225.104 232.247ZM202.728 257.315C207.772 257.998 212.191 258.232 215.986 258.016C219.782 257.798 224.197 257.123 229.232 255.99L227.76 261.038C227.391 262.337 226.753 263.465 225.847 264.422C224.942 265.377 223.897 266.045 222.713 266.427L206.723 271.587C205.454 271.996 204.299 271.754 203.259 270.861C202.22 269.967 201.774 268.808 201.923 267.383L202.728 257.315ZM179.657 234.448C182.618 233.492 185.484 233.784 188.256 235.322C191.026 236.863 192.86 239.21 193.758 242.362C194.656 245.514 194.367 248.557 192.894 251.491C191.42 254.424 189.202 256.369 186.241 257.325C184.126 258.007 181.191 257.959 177.437 257.18C173.68 256.4 168.757 254.805 162.666 252.394C166.474 246.79 169.729 242.568 172.431 239.729C175.133 236.891 177.542 235.13 179.657 234.448Z" fill="#640F66"/>
</g>
<path d="M279.048 49.7306C290.62 74.1156 253.503 118.886 196.146 149.728C138.788 180.569 82.9094 185.804 71.3375 161.419C59.7656 137.034 96.8824 92.2634 154.24 61.4216C211.598 30.5798 267.476 25.3456 279.048 49.7306ZM87.4541 152.753C97.2302 173.353 144.437 168.931 192.894 142.876C241.351 116.82 272.708 78.9975 262.932 58.3966C253.155 37.7958 205.948 42.2178 157.492 68.2734C109.035 94.3291 77.678 132.152 87.4541 152.753Z" fill="#640F66"/>
<ellipse cx="175.52" cy="105.285" rx="73.1784" ry="77.8962" fill="#A11BA4"/>
<path d="M279.048 49.7306C290.62 74.1156 253.503 118.886 196.146 149.728C138.788 180.569 82.9094 185.804 71.3375 161.419C59.7656 137.034 96.8824 92.2634 154.24 61.4216C211.598 30.5798 267.476 25.3456 279.048 49.7306ZM87.4541 152.753C97.2302 173.353 144.437 168.931 192.894 142.876C241.351 116.82 272.708 78.9975 262.932 58.3966C253.155 37.7958 205.948 42.2178 157.492 68.2734C109.035 94.3291 77.678 132.152 87.4541 152.753Z" fill="#640F66"/>
<path d="M110.842 141.722C106.346 132.68 103.568 122.785 102.666 112.601C101.763 102.416 102.754 92.1427 105.582 82.366C108.409 72.5894 113.018 63.5013 119.145 55.6206C125.272 47.74 132.798 41.2211 141.291 36.4362C149.785 31.6513 159.081 28.6941 168.649 27.7335C178.216 26.7728 187.868 27.8275 197.052 30.8373C206.237 33.8471 214.774 38.7531 222.178 45.2752C229.581 51.7973 235.705 59.8077 240.2 68.8491L175.521 105.285L110.842 141.722Z" fill="#A11BA4"/>
<path d="M102.826 127.236L101.634 121.165C100.442 115.094 99.9722 108.904 100.234 102.723C100.468 97.2005 101.285 91.7183 102.671 86.3676L104.319 80.0074L106.755 74.0364C108.611 69.4866 110.849 65.1018 113.443 60.9287L113.689 60.5327C115.9 56.9777 118.381 53.5989 121.112 50.4264L121.782 49.6479C124.567 46.4133 127.641 43.4401 130.967 40.7654C135.578 37.0568 140.641 33.9477 146.035 31.5125L146.681 31.2205C150.284 29.5938 154.022 28.2842 157.851 27.3063L158.696 27.0906C164.713 25.5545 170.926 24.9271 177.128 25.2295C181.825 25.4584 186.48 26.2186 191.005 27.4955L192.308 27.8631C196.348 29.0032 200.339 30.5101 204.128 32.3162C209.19 34.7284 214.041 37.7292 218.448 41.1951L223.014 44.7856L232.989 54.326C233.432 54.75 233.81 55.238 234.109 55.7737L234.404 56.303C236.313 59.7243 232.578 63.522 229.125 61.6707L217.867 55.6346C209.547 51.1734 199.519 57.4038 199.834 66.8397C200.164 76.7568 189.185 82.9322 180.881 77.4995L177.796 75.481C168.521 69.4122 156.183 75.8666 155.879 86.947L155.753 91.5565C155.451 102.56 143.46 109.211 133.966 103.64C125.133 98.457 113.858 103.84 112.335 113.968L110.444 126.542C109.831 130.616 104.165 131.132 102.826 127.236Z" fill="#430B44" stroke="#430B44"/>
<defs>
<clipPath id="clip0_51_761">
<rect width="91.3398" height="94.561" fill="white" transform="matrix(0.869062 0.494703 -0.448909 0.893577 194.65 170.315)"/>
</clipPath>
</defs>
</svg>
