<svg width="42" height="40" viewBox="0 0 42 40" fill="none" xmlns="http://www.w3.org/2000/svg">
<path d="M1.47619 7.34694H39.8571C40.6725 7.34694 41.3333 6.61602 41.3333 5.71429V1.63265C41.3333 0.730918 40.6725 0 39.8571 0H1.47619C0.660872 0 0 0.730918 0 1.63265V5.71429C0 6.61602 0.660872 7.34694 1.47619 7.34694ZM1.47619 23.6735H39.8571C40.6725 23.6735 41.3333 22.9426 41.3333 22.0408V17.9592C41.3333 17.0574 40.6725 16.3265 39.8571 16.3265H1.47619C0.660872 16.3265 0 17.0574 0 17.9592V22.0408C0 22.9426 0.660872 23.6735 1.47619 23.6735ZM1.47619 40H39.8571C40.6725 40 41.3333 39.2691 41.3333 38.3673V34.2857C41.3333 33.384 40.6725 32.6531 39.8571 32.6531H1.47619C0.660872 32.6531 0 33.384 0 34.2857V38.3673C0 39.2691 0.660872 40 1.47619 40Z" fill="white"/>
</svg>
